<svg width="24" height="24" viewBox="0 0 24 24" fill="none" xmlns="http://www.w3.org/2000/svg">
<rect width="24" height="24" fill="white"/>
<rect x="1" y="1" width="22" height="22" rx="2" fill="black"/>
<path d="M22 6.04961V17.6404C22 18.3938 21.39 19.0038 20.6367 19.0038H17.4542V11.2771L12 15.3688L6.54583 11.2771V19.0046H3.36333C3.18423 19.0046 3.00688 18.9693 2.84142 18.9008C2.67595 18.8322 2.52562 18.7317 2.39902 18.605C2.27241 18.4783 2.172 18.3279 2.10354 18.1624C2.03507 17.9969 1.99989 17.8195 2 17.6404V6.04961C2 4.36378 3.92417 3.40128 5.2725 4.41294L6.54583 5.36878L12 9.45878L17.4542 5.36711L18.7275 4.41294C20.075 3.40211 22 4.36378 22 6.04961Z" fill="white"/>
</svg>
