<svg width="24" height="24" viewBox="0 0 24 24" fill="none" xmlns="http://www.w3.org/2000/svg">
<rect width="24" height="24" fill="white"/>
<rect x="1" y="1" width="22" height="22" rx="2" fill="black"/>
<path d="M15.8045 2.33972H8.77886C8.19657 2.33972 7.63813 2.57103 7.22639 2.98277C6.81466 3.39451 6.58334 3.95295 6.58334 4.53523V19.4647C6.58334 20.047 6.81466 20.6054 7.22639 21.0172C7.63813 21.4289 8.19657 21.6602 8.77886 21.6602H15.8045C16.3868 21.6602 16.9452 21.4289 17.357 21.0172C17.7687 20.6054 18 20.047 18 19.4647V4.53523C18 3.95295 17.7687 3.39451 17.357 2.98277C16.9452 2.57103 16.3868 2.33972 15.8045 2.33972V2.33972ZM12.2917 20.782C11.5628 20.782 10.9744 20.1936 10.9744 19.4647C10.9744 18.7358 11.5628 18.1474 12.2917 18.1474C13.0206 18.1474 13.609 18.7358 13.609 19.4647C13.609 20.1936 13.0206 20.782 12.2917 20.782ZM16.2436 17.2692H8.33975V4.97434H16.2436V17.2692Z" fill="white"/>
</svg>
