<svg width="24" height="24" viewBox="0 0 24 24" fill="none" xmlns="http://www.w3.org/2000/svg">
<rect width="24" height="24" fill="white"/>
<g clip-path="url(#clip0)">
<rect x="1" y="1" width="22" height="22" rx="2" fill="black"/>
<path d="M22.0805 5.89789C21.3567 6.21861 20.5792 6.43531 19.7618 6.53326C20.6052 6.0286 21.2362 5.23432 21.537 4.29863C20.7446 4.7693 19.8774 5.1006 18.973 5.27812C18.3648 4.62877 17.5593 4.19836 16.6814 4.05374C15.8036 3.90911 14.9025 4.05834 14.1182 4.47828C13.3339 4.89821 12.7101 5.56535 12.3438 6.37611C11.9774 7.18688 11.889 8.0959 12.0923 8.96206C10.4867 8.88144 8.91595 8.46412 7.48207 7.73718C6.0482 7.01023 4.78319 5.98991 3.76917 4.74244C3.42244 5.34053 3.22308 6.03398 3.22308 6.7725C3.22269 7.43734 3.38641 8.09199 3.69972 8.67838C4.01302 9.26477 4.46622 9.76476 5.0191 10.134C4.3779 10.1136 3.75085 9.94032 3.19014 9.62863V9.68064C3.19007 10.6131 3.51262 11.5169 4.10305 12.2386C4.69347 12.9603 5.51541 13.4555 6.4294 13.6402C5.83458 13.8012 5.21096 13.8249 4.60564 13.7096C4.86351 14.5119 5.36582 15.2135 6.04226 15.7162C6.71869 16.2188 7.53538 16.4974 8.37798 16.5128C6.94761 17.6357 5.1811 18.2448 3.36263 18.2421C3.04051 18.2422 2.71866 18.2234 2.39874 18.1858C4.24459 19.3726 6.39329 20.0024 8.58775 20C16.0163 20 20.0773 13.8474 20.0773 8.51132C20.0773 8.33796 20.073 8.16286 20.0652 7.9895C20.8551 7.41825 21.5369 6.71087 22.0788 5.90049L22.0805 5.89789V5.89789Z" fill="white"/>
</g>
<defs>
<clipPath id="clip0">
<rect width="22" height="22" fill="white" transform="translate(1 1)"/>
</clipPath>
</defs>
</svg>
